<svg width="17" height="20" viewBox="0 0 17 20" fill="none" xmlns="http://www.w3.org/2000/svg">
<path d="M13.5541 10.5318C13.5328 8.22864 15.4912 7.10814 15.5807 7.05598C14.4716 5.4817 12.7525 5.26661 12.1485 5.24946C10.7047 5.10153 9.30415 6.09055 8.56867 6.09055C7.81851 6.09055 6.68593 5.26375 5.46526 5.28804C3.89447 5.31163 2.42498 6.19702 1.61903 7.57192C-0.0442435 10.3753 1.19624 14.495 2.78978 16.761C3.58692 17.8708 4.51839 19.1099 5.73758 19.0663C6.93035 19.0185 7.3759 18.326 8.8153 18.326C10.2415 18.326 10.6599 19.0663 11.9033 19.0385C13.1834 19.0185 13.9894 17.9237 14.7586 16.8039C15.6798 15.5319 16.0497 14.2792 16.0644 14.2149C16.0343 14.2049 13.5783 13.2923 13.5541 10.5318Z" fill="white"/>
<path d="M11.2053 3.75881C11.8468 2.97775 12.2858 1.91513 12.1639 0.836792C11.2354 0.87681 10.0742 1.46207 9.40551 2.22598C8.81389 2.89914 8.2854 4.00249 8.42193 5.0401C9.46496 5.11584 10.5359 4.52772 11.2053 3.75881Z" fill="white"/>
</svg>
