<svg width="25" height="20" viewBox="0 0 25 20" fill="none" xmlns="http://www.w3.org/2000/svg">
<path d="M24.1007 2.34805C23.2082 2.73955 22.2572 2.99905 21.2657 3.12505C22.2857 2.51605 23.0642 1.55905 23.4302 0.405551C22.4792 0.972551 21.4292 1.37305 20.3102 1.59655C19.4072 0.635051 18.1202 0.0395508 16.7162 0.0395508C13.9922 0.0395508 11.7992 2.25055 11.7992 4.96105C11.7992 5.35105 11.8322 5.72605 11.9132 6.08305C7.82271 5.88355 4.20321 3.92305 1.77171 0.936551C1.34721 1.67305 1.09821 2.51605 1.09821 3.42355C1.09821 5.12755 1.97571 6.63805 3.28371 7.51255C2.49321 7.49755 1.71771 7.26805 1.06071 6.90655C1.06071 6.92155 1.06071 6.94105 1.06071 6.96055C1.06071 9.35155 2.76621 11.3376 5.00271 11.7951C4.60221 11.9046 4.16571 11.9571 3.71271 11.9571C3.39771 11.9571 3.07971 11.9391 2.78121 11.8731C3.41871 13.8216 5.22771 15.2541 7.37871 15.3006C5.70471 16.6101 3.57921 17.3991 1.27821 17.3991C0.874708 17.3991 0.487708 17.3811 0.100708 17.3316C2.28021 18.7371 4.86321 19.5396 7.64871 19.5396C16.7027 19.5396 21.6527 12.0396 21.6527 5.53855C21.6527 5.32105 21.6452 5.11105 21.6347 4.90255C22.6112 4.20955 23.4317 3.34405 24.1007 2.34805Z" fill="#222222"/>
</svg>
